<svg width="48" height="48" viewBox="0 0 48 48" fill="none" xmlns="http://www.w3.org/2000/svg">
<g clip-path="url(#clip0_209_2)">
<path d="M48 0H0V48H48V0Z" fill="#2B2B2B"/>
<path d="M46 1.91992H2V45.9199H46V1.91992Z" fill="white"/>
<path d="M43.8397 4.23975H4.23975V43.8397H43.8397V4.23975Z" fill="#2B2B2B"/>
<path d="M6.35986 31.1602V41.6402H8.47986V37.4803H14.6799V41.6402H16.7999V31.1602H6.35986Z" fill="white"/>
<path d="M31.3599 31.1201V41.6H33.4798V37.4401H39.6798V41.6H41.7999V31.1201H31.3599Z" fill="white"/>
<path d="M8.43994 35.3203V33.2803H14.7199V35.3203H8.43994Z" fill="#2B2B2B"/>
<path d="M33.4399 35.3203V33.2803H39.72V35.3203H33.4399Z" fill="#2B2B2B"/>
<path d="M35.52 39.52H37.68V43.84H35.52V39.52Z" fill="white"/>
<path d="M20.9598 29.1602H18.8398V18.6802H29.2798V24.9602H20.9598V29.1602Z" fill="white"/>
<path d="M18.8799 41.64H20.9598V37.44H27.1998V41.64H29.3998V27H27.1998V35.32H20.9598V31.16H18.8799V41.64Z" fill="white"/>
<path d="M20.9998 6.16016H18.8398V16.6802H25.1199V8.28015H27.1998V16.6802H29.3598V6.16016H23.0398V14.4802H20.9998V6.16016Z" fill="white"/>
<path d="M8.5599 18.6401H6.3999V29.1601H12.6799V20.7601H14.7599V29.1601H16.92V18.6401H10.5999V26.96H8.5599V18.6401Z" fill="white"/>
<path d="M33.4398 18.7202H31.2798V29.2402H37.5598V20.8402H39.6399V29.2402H41.7999V18.7202H35.4798V27.0403H33.4398V18.7202Z" fill="white"/>
<path d="M31.3198 16.6802V6.16016H41.7999V8.32016H33.5199V10.3602H41.7999V16.6802H31.3198Z" fill="white"/>
<path d="M33.4399 14.5199V12.4399H39.72V14.5199H33.4399Z" fill="#2B2B2B"/>
<path d="M20.8799 22.8802V20.8003H27.1598V22.8802H20.8799Z" fill="#2B2B2B"/>
<path d="M16.7599 6.16016V8.28015H8.51991V14.5202H16.7599V16.6002H6.3999V6.16016H16.7599Z" fill="white"/>
</g>
<defs>
<clipPath id="clip0_209_2">
<rect width="48" height="48" fill="white"/>
</clipPath>
</defs>
</svg>
